<?xml version="1.0" encoding="utf-8" standalone="no"?>
<!DOCTYPE svg PUBLIC "-//W3C//DTD SVG 1.1//EN"
  "http://www.w3.org/Graphics/SVG/1.1/DTD/svg11.dtd">
<!-- Created with matplotlib (https://matplotlib.org/) -->
<svg height="345.6pt" version="1.1" viewBox="0 0 460.8 345.6" width="460.8pt" xmlns="http://www.w3.org/2000/svg" xmlns:xlink="http://www.w3.org/1999/xlink">
 <defs>
  <style type="text/css">
*{stroke-linecap:butt;stroke-linejoin:round;}
  </style>
 </defs>
 <g id="figure_1">
  <g id="patch_1">
   <path d="M 0 345.6 
L 460.8 345.6 
L 460.8 0 
L 0 0 
z
" style="fill:#ffffff;"/>
  </g>
  <g id="axes_1">
   <g id="patch_2">
    <path d="M 57.6 307.584 
L 414.72 307.584 
L 414.72 41.472 
L 57.6 41.472 
z
" style="fill:#ffffff;"/>
   </g>
   <g id="patch_3">
    <path clip-path="url(#p3c9df1a413)" d="M 383.730248 174.528 
Q 276.931748 121.473267 171.134538 68.915949 
" style="fill:none;stroke:#000000;stroke-linecap:round;"/>
    <path clip-path="url(#p3c9df1a413)" d="M 173.827055 72.486712 
L 171.134538 68.915949 
L 175.606659 68.904393 
L 173.827055 72.486712 
z
" style="stroke:#000000;stroke-linecap:round;"/>
   </g>
   <g id="patch_4">
    <path clip-path="url(#p3c9df1a413)" d="M 383.730248 174.528 
Q 276.931759 227.582736 171.134559 280.140058 
" style="fill:none;stroke:#000000;stroke-linecap:round;"/>
    <path clip-path="url(#p3c9df1a413)" d="M 175.60668 280.151614 
L 171.134559 280.140058 
L 173.827076 276.569295 
L 175.60668 280.151614 
z
" style="stroke:#000000;stroke-linecap:round;"/>
   </g>
   <g id="patch_5">
    <path clip-path="url(#p3c9df1a413)" d="M 309.94512 64.564364 
Q 240.490096 64.564367 172.153106 64.564371 
" style="fill:none;stroke:#000000;stroke-linecap:round;"/>
    <path clip-path="url(#p3c9df1a413)" d="M 176.153106 66.56437 
L 172.153106 64.564371 
L 176.153106 62.56437 
L 176.153106 66.56437 
z
" style="stroke:#000000;stroke-linecap:round;"/>
   </g>
   <g id="patch_6">
    <path clip-path="url(#p3c9df1a413)" d="M 309.94512 64.564364 
Q 238.572747 170.932235 167.823328 276.371704 
" style="fill:none;stroke:#000000;stroke-linecap:round;"/>
    <path clip-path="url(#p3c9df1a413)" d="M 171.712848 274.164527 
L 167.823328 276.371704 
L 168.391298 271.935782 
L 171.712848 274.164527 
z
" style="stroke:#000000;stroke-linecap:round;"/>
   </g>
   <g id="patch_7">
    <path clip-path="url(#p3c9df1a413)" d="M 309.94512 64.564364 
Q 203.146626 117.619105 97.349422 170.176433 
" style="fill:none;stroke:#000000;stroke-linecap:round;"/>
    <path clip-path="url(#p3c9df1a413)" d="M 101.821543 170.187988 
L 97.349422 170.176433 
L 100.041939 166.605669 
L 101.821543 170.187988 
z
" style="stroke:#000000;stroke-linecap:round;"/>
   </g>
   <g id="patch_8">
    <path clip-path="url(#p3c9df1a413)" d="M 162.374867 64.564371 
Q 231.829891 64.564368 300.166881 64.564364 
" style="fill:none;stroke:#000000;stroke-linecap:round;"/>
    <path clip-path="url(#p3c9df1a413)" d="M 296.166881 62.564364 
L 300.166881 64.564364 
L 296.166881 66.564364 
L 296.166881 62.564364 
z
" style="stroke:#000000;stroke-linecap:round;"/>
   </g>
   <g id="patch_9">
    <path clip-path="url(#p3c9df1a413)" d="M 162.374867 64.564371 
Q 233.747246 170.932239 304.496672 276.371705 
" style="fill:none;stroke:#000000;stroke-linecap:round;"/>
    <path clip-path="url(#p3c9df1a413)" d="M 303.928701 271.935782 
L 304.496672 276.371705 
L 300.607151 274.164528 
L 303.928701 271.935782 
z
" style="stroke:#000000;stroke-linecap:round;"/>
   </g>
   <g id="patch_10">
    <path clip-path="url(#p3c9df1a413)" d="M 162.374867 64.564371 
Q 269.173367 117.619104 374.970577 170.176422 
" style="fill:none;stroke:#000000;stroke-linecap:round;"/>
    <path clip-path="url(#p3c9df1a413)" d="M 372.27806 166.605659 
L 374.970577 170.176422 
L 370.498456 170.187978 
L 372.27806 166.605659 
z
" style="stroke:#000000;stroke-linecap:round;"/>
   </g>
   <g id="patch_11">
    <path clip-path="url(#p3c9df1a413)" d="M 162.374867 64.564371 
Q 127.895052 115.950426 94.038191 166.408079 
" style="fill:none;stroke:#000000;stroke-linecap:round;"/>
    <path clip-path="url(#p3c9df1a413)" d="M 97.927711 164.200902 
L 94.038191 166.408079 
L 94.606161 161.972156 
L 97.927711 164.200902 
z
" style="stroke:#000000;stroke-linecap:round;"/>
   </g>
   <g id="patch_12">
    <path clip-path="url(#p3c9df1a413)" d="M 88.589752 174.528011 
Q 123.069567 123.141957 156.926429 72.684303 
" style="fill:none;stroke:#000000;stroke-linecap:round;"/>
    <path clip-path="url(#p3c9df1a413)" d="M 153.036908 74.891481 
L 156.926429 72.684303 
L 156.358458 77.120226 
L 153.036908 74.891481 
z
" style="stroke:#000000;stroke-linecap:round;"/>
   </g>
   <g id="patch_13">
    <path clip-path="url(#p3c9df1a413)" d="M 88.589752 174.528011 
Q 123.069577 225.914059 156.926449 276.371705 
" style="fill:none;stroke:#000000;stroke-linecap:round;"/>
    <path clip-path="url(#p3c9df1a413)" d="M 156.358478 271.935783 
L 156.926449 276.371705 
L 153.036928 274.164529 
L 156.358478 271.935783 
z
" style="stroke:#000000;stroke-linecap:round;"/>
   </g>
   <g id="patch_14">
    <path clip-path="url(#p3c9df1a413)" d="M 88.589752 174.528011 
Q 195.388245 121.473269 301.18545 68.915942 
" style="fill:none;stroke:#000000;stroke-linecap:round;"/>
    <path clip-path="url(#p3c9df1a413)" d="M 296.713329 68.904386 
L 301.18545 68.915942 
L 298.492932 72.486706 
L 296.713329 68.904386 
z
" style="stroke:#000000;stroke-linecap:round;"/>
   </g>
   <g id="patch_15">
    <path clip-path="url(#p3c9df1a413)" d="M 88.589752 174.528011 
Q 195.388241 227.582742 301.185441 280.140059 
" style="fill:none;stroke:#000000;stroke-linecap:round;"/>
    <path clip-path="url(#p3c9df1a413)" d="M 298.492924 276.569295 
L 301.185441 280.140059 
L 296.71332 280.151615 
L 298.492924 276.569295 
z
" style="stroke:#000000;stroke-linecap:round;"/>
   </g>
   <g id="patch_16">
    <path clip-path="url(#p3c9df1a413)" d="M 162.374889 284.491636 
Q 233.747262 178.123765 304.496681 72.684296 
" style="fill:none;stroke:#000000;stroke-linecap:round;"/>
    <path clip-path="url(#p3c9df1a413)" d="M 300.607161 74.891473 
L 304.496681 72.684296 
L 303.928711 77.120218 
L 300.607161 74.891473 
z
" style="stroke:#000000;stroke-linecap:round;"/>
   </g>
   <g id="patch_17">
    <path clip-path="url(#p3c9df1a413)" d="M 162.374889 284.491636 
Q 269.173378 231.4369 374.970578 178.879578 
" style="fill:none;stroke:#000000;stroke-linecap:round;"/>
    <path clip-path="url(#p3c9df1a413)" d="M 370.498457 178.868022 
L 374.970578 178.879578 
L 372.278061 182.450341 
L 370.498457 178.868022 
z
" style="stroke:#000000;stroke-linecap:round;"/>
   </g>
   <g id="patch_18">
    <path clip-path="url(#p3c9df1a413)" d="M 162.374889 284.491636 
Q 127.895064 233.105589 94.038192 182.647942 
" style="fill:none;stroke:#000000;stroke-linecap:round;"/>
    <path clip-path="url(#p3c9df1a413)" d="M 94.606163 187.083865 
L 94.038192 182.647942 
L 97.927713 184.855119 
L 94.606163 187.083865 
z
" style="stroke:#000000;stroke-linecap:round;"/>
   </g>
   <g id="patch_19">
    <path clip-path="url(#p3c9df1a413)" d="M 309.945111 284.491636 
Q 238.572732 178.123769 167.823306 72.684303 
" style="fill:none;stroke:#000000;stroke-linecap:round;"/>
    <path clip-path="url(#p3c9df1a413)" d="M 168.391277 77.120225 
L 167.823306 72.684303 
L 171.712827 74.89148 
L 168.391277 77.120225 
z
" style="stroke:#000000;stroke-linecap:round;"/>
   </g>
   <g id="patch_20">
    <path clip-path="url(#p3c9df1a413)" d="M 309.945111 284.491636 
Q 203.146622 231.436905 97.349422 178.879589 
" style="fill:none;stroke:#000000;stroke-linecap:round;"/>
    <path clip-path="url(#p3c9df1a413)" d="M 100.041939 182.450352 
L 97.349422 178.879589 
L 101.821543 178.868033 
L 100.041939 182.450352 
z
" style="stroke:#000000;stroke-linecap:round;"/>
   </g>
   <g id="patch_21">
    <path clip-path="url(#p3c9df1a413)" d="M 383.730248 174.528 
Q 276.931748 121.473267 171.134538 68.915949 
" style="fill:none;stroke:#000000;stroke-linecap:round;"/>
    <path clip-path="url(#p3c9df1a413)" d="M 173.827055 72.486712 
L 171.134538 68.915949 
L 175.606659 68.904393 
L 173.827055 72.486712 
z
" style="stroke:#000000;stroke-linecap:round;"/>
   </g>
   <g id="patch_22">
    <path clip-path="url(#p3c9df1a413)" d="M 383.730248 174.528 
Q 276.931759 227.582736 171.134559 280.140058 
" style="fill:none;stroke:#000000;stroke-linecap:round;"/>
    <path clip-path="url(#p3c9df1a413)" d="M 175.60668 280.151614 
L 171.134559 280.140058 
L 173.827076 276.569295 
L 175.60668 280.151614 
z
" style="stroke:#000000;stroke-linecap:round;"/>
   </g>
   <g id="patch_23">
    <path clip-path="url(#p3c9df1a413)" d="M 309.94512 64.564364 
Q 240.490096 64.564367 172.153106 64.564371 
" style="fill:none;stroke:#000000;stroke-linecap:round;"/>
    <path clip-path="url(#p3c9df1a413)" d="M 176.153106 66.56437 
L 172.153106 64.564371 
L 176.153106 62.56437 
L 176.153106 66.56437 
z
" style="stroke:#000000;stroke-linecap:round;"/>
   </g>
   <g id="patch_24">
    <path clip-path="url(#p3c9df1a413)" d="M 309.94512 64.564364 
Q 238.572747 170.932235 167.823328 276.371704 
" style="fill:none;stroke:#000000;stroke-linecap:round;"/>
    <path clip-path="url(#p3c9df1a413)" d="M 171.712848 274.164527 
L 167.823328 276.371704 
L 168.391298 271.935782 
L 171.712848 274.164527 
z
" style="stroke:#000000;stroke-linecap:round;"/>
   </g>
   <g id="patch_25">
    <path clip-path="url(#p3c9df1a413)" d="M 309.94512 64.564364 
Q 203.146626 117.619105 97.349422 170.176433 
" style="fill:none;stroke:#000000;stroke-linecap:round;"/>
    <path clip-path="url(#p3c9df1a413)" d="M 101.821543 170.187988 
L 97.349422 170.176433 
L 100.041939 166.605669 
L 101.821543 170.187988 
z
" style="stroke:#000000;stroke-linecap:round;"/>
   </g>
   <g id="patch_26">
    <path clip-path="url(#p3c9df1a413)" d="M 162.374867 64.564371 
Q 231.829891 64.564368 300.166881 64.564364 
" style="fill:none;stroke:#000000;stroke-linecap:round;"/>
    <path clip-path="url(#p3c9df1a413)" d="M 296.166881 62.564364 
L 300.166881 64.564364 
L 296.166881 66.564364 
L 296.166881 62.564364 
z
" style="stroke:#000000;stroke-linecap:round;"/>
   </g>
   <g id="patch_27">
    <path clip-path="url(#p3c9df1a413)" d="M 162.374867 64.564371 
Q 233.747246 170.932239 304.496672 276.371705 
" style="fill:none;stroke:#000000;stroke-linecap:round;"/>
    <path clip-path="url(#p3c9df1a413)" d="M 303.928701 271.935782 
L 304.496672 276.371705 
L 300.607151 274.164528 
L 303.928701 271.935782 
z
" style="stroke:#000000;stroke-linecap:round;"/>
   </g>
   <g id="patch_28">
    <path clip-path="url(#p3c9df1a413)" d="M 162.374867 64.564371 
Q 269.173367 117.619104 374.970577 170.176422 
" style="fill:none;stroke:#000000;stroke-linecap:round;"/>
    <path clip-path="url(#p3c9df1a413)" d="M 372.27806 166.605659 
L 374.970577 170.176422 
L 370.498456 170.187978 
L 372.27806 166.605659 
z
" style="stroke:#000000;stroke-linecap:round;"/>
   </g>
   <g id="patch_29">
    <path clip-path="url(#p3c9df1a413)" d="M 162.374867 64.564371 
Q 127.895052 115.950426 94.038191 166.408079 
" style="fill:none;stroke:#000000;stroke-linecap:round;"/>
    <path clip-path="url(#p3c9df1a413)" d="M 97.927711 164.200902 
L 94.038191 166.408079 
L 94.606161 161.972156 
L 97.927711 164.200902 
z
" style="stroke:#000000;stroke-linecap:round;"/>
   </g>
   <g id="patch_30">
    <path clip-path="url(#p3c9df1a413)" d="M 88.589752 174.528011 
Q 123.069567 123.141957 156.926429 72.684303 
" style="fill:none;stroke:#000000;stroke-linecap:round;"/>
    <path clip-path="url(#p3c9df1a413)" d="M 153.036908 74.891481 
L 156.926429 72.684303 
L 156.358458 77.120226 
L 153.036908 74.891481 
z
" style="stroke:#000000;stroke-linecap:round;"/>
   </g>
   <g id="patch_31">
    <path clip-path="url(#p3c9df1a413)" d="M 88.589752 174.528011 
Q 123.069577 225.914059 156.926449 276.371705 
" style="fill:none;stroke:#000000;stroke-linecap:round;"/>
    <path clip-path="url(#p3c9df1a413)" d="M 156.358478 271.935783 
L 156.926449 276.371705 
L 153.036928 274.164529 
L 156.358478 271.935783 
z
" style="stroke:#000000;stroke-linecap:round;"/>
   </g>
   <g id="patch_32">
    <path clip-path="url(#p3c9df1a413)" d="M 88.589752 174.528011 
Q 195.388245 121.473269 301.18545 68.915942 
" style="fill:none;stroke:#000000;stroke-linecap:round;"/>
    <path clip-path="url(#p3c9df1a413)" d="M 296.713329 68.904386 
L 301.18545 68.915942 
L 298.492932 72.486706 
L 296.713329 68.904386 
z
" style="stroke:#000000;stroke-linecap:round;"/>
   </g>
   <g id="patch_33">
    <path clip-path="url(#p3c9df1a413)" d="M 88.589752 174.528011 
Q 195.388241 227.582742 301.185441 280.140059 
" style="fill:none;stroke:#000000;stroke-linecap:round;"/>
    <path clip-path="url(#p3c9df1a413)" d="M 298.492924 276.569295 
L 301.185441 280.140059 
L 296.71332 280.151615 
L 298.492924 276.569295 
z
" style="stroke:#000000;stroke-linecap:round;"/>
   </g>
   <g id="patch_34">
    <path clip-path="url(#p3c9df1a413)" d="M 162.374889 284.491636 
Q 233.747262 178.123765 304.496681 72.684296 
" style="fill:none;stroke:#000000;stroke-linecap:round;"/>
    <path clip-path="url(#p3c9df1a413)" d="M 300.607161 74.891473 
L 304.496681 72.684296 
L 303.928711 77.120218 
L 300.607161 74.891473 
z
" style="stroke:#000000;stroke-linecap:round;"/>
   </g>
   <g id="patch_35">
    <path clip-path="url(#p3c9df1a413)" d="M 162.374889 284.491636 
Q 269.173378 231.4369 374.970578 178.879578 
" style="fill:none;stroke:#000000;stroke-linecap:round;"/>
    <path clip-path="url(#p3c9df1a413)" d="M 370.498457 178.868022 
L 374.970578 178.879578 
L 372.278061 182.450341 
L 370.498457 178.868022 
z
" style="stroke:#000000;stroke-linecap:round;"/>
   </g>
   <g id="patch_36">
    <path clip-path="url(#p3c9df1a413)" d="M 162.374889 284.491636 
Q 127.895064 233.105589 94.038192 182.647942 
" style="fill:none;stroke:#000000;stroke-linecap:round;"/>
    <path clip-path="url(#p3c9df1a413)" d="M 94.606163 187.083865 
L 94.038192 182.647942 
L 97.927713 184.855119 
L 94.606163 187.083865 
z
" style="stroke:#000000;stroke-linecap:round;"/>
   </g>
   <g id="patch_37">
    <path clip-path="url(#p3c9df1a413)" d="M 309.945111 284.491636 
Q 238.572732 178.123769 167.823306 72.684303 
" style="fill:none;stroke:#000000;stroke-linecap:round;"/>
    <path clip-path="url(#p3c9df1a413)" d="M 168.391277 77.120225 
L 167.823306 72.684303 
L 171.712827 74.89148 
L 168.391277 77.120225 
z
" style="stroke:#000000;stroke-linecap:round;"/>
   </g>
   <g id="patch_38">
    <path clip-path="url(#p3c9df1a413)" d="M 309.945111 284.491636 
Q 203.146622 231.436905 97.349422 178.879589 
" style="fill:none;stroke:#000000;stroke-linecap:round;"/>
    <path clip-path="url(#p3c9df1a413)" d="M 100.041939 182.450352 
L 97.349422 178.879589 
L 101.821543 178.868033 
L 100.041939 182.450352 
z
" style="stroke:#000000;stroke-linecap:round;"/>
   </g>
   <g id="patch_39">
    <path clip-path="url(#p3c9df1a413)" d="M 383.730248 174.528 
Q 276.931748 121.473267 171.134538 68.915949 
" style="fill:none;stroke:#000000;stroke-linecap:round;"/>
    <path clip-path="url(#p3c9df1a413)" d="M 173.827055 72.486712 
L 171.134538 68.915949 
L 175.606659 68.904393 
L 173.827055 72.486712 
z
" style="stroke:#000000;stroke-linecap:round;"/>
   </g>
   <g id="patch_40">
    <path clip-path="url(#p3c9df1a413)" d="M 383.730248 174.528 
Q 276.931759 227.582736 171.134559 280.140058 
" style="fill:none;stroke:#000000;stroke-linecap:round;"/>
    <path clip-path="url(#p3c9df1a413)" d="M 175.60668 280.151614 
L 171.134559 280.140058 
L 173.827076 276.569295 
L 175.60668 280.151614 
z
" style="stroke:#000000;stroke-linecap:round;"/>
   </g>
   <g id="patch_41">
    <path clip-path="url(#p3c9df1a413)" d="M 309.94512 64.564364 
Q 240.490096 64.564367 172.153106 64.564371 
" style="fill:none;stroke:#000000;stroke-linecap:round;"/>
    <path clip-path="url(#p3c9df1a413)" d="M 176.153106 66.56437 
L 172.153106 64.564371 
L 176.153106 62.56437 
L 176.153106 66.56437 
z
" style="stroke:#000000;stroke-linecap:round;"/>
   </g>
   <g id="patch_42">
    <path clip-path="url(#p3c9df1a413)" d="M 309.94512 64.564364 
Q 238.572747 170.932235 167.823328 276.371704 
" style="fill:none;stroke:#000000;stroke-linecap:round;"/>
    <path clip-path="url(#p3c9df1a413)" d="M 171.712848 274.164527 
L 167.823328 276.371704 
L 168.391298 271.935782 
L 171.712848 274.164527 
z
" style="stroke:#000000;stroke-linecap:round;"/>
   </g>
   <g id="patch_43">
    <path clip-path="url(#p3c9df1a413)" d="M 309.94512 64.564364 
Q 203.146626 117.619105 97.349422 170.176433 
" style="fill:none;stroke:#000000;stroke-linecap:round;"/>
    <path clip-path="url(#p3c9df1a413)" d="M 101.821543 170.187988 
L 97.349422 170.176433 
L 100.041939 166.605669 
L 101.821543 170.187988 
z
" style="stroke:#000000;stroke-linecap:round;"/>
   </g>
   <g id="patch_44">
    <path clip-path="url(#p3c9df1a413)" d="M 162.374867 64.564371 
Q 231.829891 64.564368 300.166881 64.564364 
" style="fill:none;stroke:#000000;stroke-linecap:round;"/>
    <path clip-path="url(#p3c9df1a413)" d="M 296.166881 62.564364 
L 300.166881 64.564364 
L 296.166881 66.564364 
L 296.166881 62.564364 
z
" style="stroke:#000000;stroke-linecap:round;"/>
   </g>
   <g id="patch_45">
    <path clip-path="url(#p3c9df1a413)" d="M 162.374867 64.564371 
Q 233.747246 170.932239 304.496672 276.371705 
" style="fill:none;stroke:#000000;stroke-linecap:round;"/>
    <path clip-path="url(#p3c9df1a413)" d="M 303.928701 271.935782 
L 304.496672 276.371705 
L 300.607151 274.164528 
L 303.928701 271.935782 
z
" style="stroke:#000000;stroke-linecap:round;"/>
   </g>
   <g id="patch_46">
    <path clip-path="url(#p3c9df1a413)" d="M 162.374867 64.564371 
Q 269.173367 117.619104 374.970577 170.176422 
" style="fill:none;stroke:#000000;stroke-linecap:round;"/>
    <path clip-path="url(#p3c9df1a413)" d="M 372.27806 166.605659 
L 374.970577 170.176422 
L 370.498456 170.187978 
L 372.27806 166.605659 
z
" style="stroke:#000000;stroke-linecap:round;"/>
   </g>
   <g id="patch_47">
    <path clip-path="url(#p3c9df1a413)" d="M 162.374867 64.564371 
Q 127.895052 115.950426 94.038191 166.408079 
" style="fill:none;stroke:#000000;stroke-linecap:round;"/>
    <path clip-path="url(#p3c9df1a413)" d="M 97.927711 164.200902 
L 94.038191 166.408079 
L 94.606161 161.972156 
L 97.927711 164.200902 
z
" style="stroke:#000000;stroke-linecap:round;"/>
   </g>
   <g id="patch_48">
    <path clip-path="url(#p3c9df1a413)" d="M 88.589752 174.528011 
Q 123.069567 123.141957 156.926429 72.684303 
" style="fill:none;stroke:#000000;stroke-linecap:round;"/>
    <path clip-path="url(#p3c9df1a413)" d="M 153.036908 74.891481 
L 156.926429 72.684303 
L 156.358458 77.120226 
L 153.036908 74.891481 
z
" style="stroke:#000000;stroke-linecap:round;"/>
   </g>
   <g id="patch_49">
    <path clip-path="url(#p3c9df1a413)" d="M 88.589752 174.528011 
Q 123.069577 225.914059 156.926449 276.371705 
" style="fill:none;stroke:#000000;stroke-linecap:round;"/>
    <path clip-path="url(#p3c9df1a413)" d="M 156.358478 271.935783 
L 156.926449 276.371705 
L 153.036928 274.164529 
L 156.358478 271.935783 
z
" style="stroke:#000000;stroke-linecap:round;"/>
   </g>
   <g id="patch_50">
    <path clip-path="url(#p3c9df1a413)" d="M 88.589752 174.528011 
Q 195.388245 121.473269 301.18545 68.915942 
" style="fill:none;stroke:#000000;stroke-linecap:round;"/>
    <path clip-path="url(#p3c9df1a413)" d="M 296.713329 68.904386 
L 301.18545 68.915942 
L 298.492932 72.486706 
L 296.713329 68.904386 
z
" style="stroke:#000000;stroke-linecap:round;"/>
   </g>
   <g id="patch_51">
    <path clip-path="url(#p3c9df1a413)" d="M 88.589752 174.528011 
Q 195.388241 227.582742 301.185441 280.140059 
" style="fill:none;stroke:#000000;stroke-linecap:round;"/>
    <path clip-path="url(#p3c9df1a413)" d="M 298.492924 276.569295 
L 301.185441 280.140059 
L 296.71332 280.151615 
L 298.492924 276.569295 
z
" style="stroke:#000000;stroke-linecap:round;"/>
   </g>
   <g id="patch_52">
    <path clip-path="url(#p3c9df1a413)" d="M 162.374889 284.491636 
Q 233.747262 178.123765 304.496681 72.684296 
" style="fill:none;stroke:#000000;stroke-linecap:round;"/>
    <path clip-path="url(#p3c9df1a413)" d="M 300.607161 74.891473 
L 304.496681 72.684296 
L 303.928711 77.120218 
L 300.607161 74.891473 
z
" style="stroke:#000000;stroke-linecap:round;"/>
   </g>
   <g id="patch_53">
    <path clip-path="url(#p3c9df1a413)" d="M 162.374889 284.491636 
Q 269.173378 231.4369 374.970578 178.879578 
" style="fill:none;stroke:#000000;stroke-linecap:round;"/>
    <path clip-path="url(#p3c9df1a413)" d="M 370.498457 178.868022 
L 374.970578 178.879578 
L 372.278061 182.450341 
L 370.498457 178.868022 
z
" style="stroke:#000000;stroke-linecap:round;"/>
   </g>
   <g id="patch_54">
    <path clip-path="url(#p3c9df1a413)" d="M 162.374889 284.491636 
Q 127.895064 233.105589 94.038192 182.647942 
" style="fill:none;stroke:#000000;stroke-linecap:round;"/>
    <path clip-path="url(#p3c9df1a413)" d="M 94.606163 187.083865 
L 94.038192 182.647942 
L 97.927713 184.855119 
L 94.606163 187.083865 
z
" style="stroke:#000000;stroke-linecap:round;"/>
   </g>
   <g id="patch_55">
    <path clip-path="url(#p3c9df1a413)" d="M 309.945111 284.491636 
Q 238.572732 178.123769 167.823306 72.684303 
" style="fill:none;stroke:#000000;stroke-linecap:round;"/>
    <path clip-path="url(#p3c9df1a413)" d="M 168.391277 77.120225 
L 167.823306 72.684303 
L 171.712827 74.89148 
L 168.391277 77.120225 
z
" style="stroke:#000000;stroke-linecap:round;"/>
   </g>
   <g id="patch_56">
    <path clip-path="url(#p3c9df1a413)" d="M 309.945111 284.491636 
Q 203.146622 231.436905 97.349422 178.879589 
" style="fill:none;stroke:#000000;stroke-linecap:round;"/>
    <path clip-path="url(#p3c9df1a413)" d="M 100.041939 182.450352 
L 97.349422 178.879589 
L 101.821543 178.868033 
L 100.041939 182.450352 
z
" style="stroke:#000000;stroke-linecap:round;"/>
   </g>
   <g id="matplotlib.axis_1">
    <g id="xtick_1"/>
    <g id="xtick_2"/>
    <g id="xtick_3"/>
    <g id="xtick_4"/>
    <g id="xtick_5"/>
   </g>
   <g id="matplotlib.axis_2">
    <g id="ytick_1"/>
    <g id="ytick_2"/>
    <g id="ytick_3"/>
    <g id="ytick_4"/>
    <g id="ytick_5"/>
    <g id="ytick_6"/>
    <g id="ytick_7"/>
    <g id="ytick_8"/>
    <g id="ytick_9"/>
   </g>
   <g id="PathCollection_1">
    <defs>
     <path d="M 0 8.660254 
C 2.296726 8.660254 4.499694 7.747755 6.123724 6.123724 
C 7.747755 4.499694 8.660254 2.296726 8.660254 0 
C 8.660254 -2.296726 7.747755 -4.499694 6.123724 -6.123724 
C 4.499694 -7.747755 2.296726 -8.660254 0 -8.660254 
C -2.296726 -8.660254 -4.499694 -7.747755 -6.123724 -6.123724 
C -7.747755 -4.499694 -8.660254 -2.296726 -8.660254 0 
C -8.660254 2.296726 -7.747755 4.499694 -6.123724 6.123724 
C -4.499694 7.747755 -2.296726 8.660254 0 8.660254 
z
" id="m0e090da4b5" style="stroke:#7cfc00;"/>
    </defs>
    <g clip-path="url(#p3c9df1a413)">
     <use style="fill:#7cfc00;stroke:#7cfc00;" x="309.94512" xlink:href="#m0e090da4b5" y="64.564364"/>
     <use style="fill:#7cfc00;stroke:#7cfc00;" x="309.945111" xlink:href="#m0e090da4b5" y="284.491636"/>
     <use style="fill:#7cfc00;stroke:#7cfc00;" x="383.730248" xlink:href="#m0e090da4b5" y="174.528"/>
    </g>
   </g>
   <g id="PathCollection_2">
    <defs>
     <path d="M 0 8.660254 
C 2.296726 8.660254 4.499694 7.747755 6.123724 6.123724 
C 7.747755 4.499694 8.660254 2.296726 8.660254 0 
C 8.660254 -2.296726 7.747755 -4.499694 6.123724 -6.123724 
C 4.499694 -7.747755 2.296726 -8.660254 0 -8.660254 
C -2.296726 -8.660254 -4.499694 -7.747755 -6.123724 -6.123724 
C -7.747755 -4.499694 -8.660254 -2.296726 -8.660254 0 
C -8.660254 2.296726 -7.747755 4.499694 -6.123724 6.123724 
C -4.499694 7.747755 -2.296726 8.660254 0 8.660254 
z
" id="md76caa03b8" style="stroke:#1e90ff;"/>
    </defs>
    <g clip-path="url(#p3c9df1a413)">
     <use style="fill:#1e90ff;stroke:#1e90ff;" x="162.374889" xlink:href="#md76caa03b8" y="284.491636"/>
     <use style="fill:#1e90ff;stroke:#1e90ff;" x="162.374867" xlink:href="#md76caa03b8" y="64.564371"/>
    </g>
   </g>
   <g id="PathCollection_3">
    <defs>
     <path d="M 0 8.660254 
C 2.296726 8.660254 4.499694 7.747755 6.123724 6.123724 
C 7.747755 4.499694 8.660254 2.296726 8.660254 0 
C 8.660254 -2.296726 7.747755 -4.499694 6.123724 -6.123724 
C 4.499694 -7.747755 2.296726 -8.660254 0 -8.660254 
C -2.296726 -8.660254 -4.499694 -7.747755 -6.123724 -6.123724 
C -7.747755 -4.499694 -8.660254 -2.296726 -8.660254 0 
C -8.660254 2.296726 -7.747755 4.499694 -6.123724 6.123724 
C -4.499694 7.747755 -2.296726 8.660254 0 8.660254 
z
" id="m7c28800ca1" style="stroke:#ff0000;"/>
    </defs>
    <g clip-path="url(#p3c9df1a413)">
     <use style="fill:#ff0000;stroke:#ff0000;" x="88.589752" xlink:href="#m7c28800ca1" y="174.528011"/>
    </g>
   </g>
   <g id="patch_57">
    <path d="M 57.6 307.584 
L 57.6 41.472 
" style="fill:none;stroke:#000000;stroke-linecap:square;stroke-linejoin:miter;stroke-width:0.8;"/>
   </g>
   <g id="patch_58">
    <path d="M 414.72 307.584 
L 414.72 41.472 
" style="fill:none;stroke:#000000;stroke-linecap:square;stroke-linejoin:miter;stroke-width:0.8;"/>
   </g>
   <g id="patch_59">
    <path d="M 57.6 307.584 
L 414.72 307.584 
" style="fill:none;stroke:#000000;stroke-linecap:square;stroke-linejoin:miter;stroke-width:0.8;"/>
   </g>
   <g id="patch_60">
    <path d="M 57.6 41.472 
L 414.72 41.472 
" style="fill:none;stroke:#000000;stroke-linecap:square;stroke-linejoin:miter;stroke-width:0.8;"/>
   </g>
   <g id="text_1">
    <g clip-path="url(#p3c9df1a413)">
     <!-- CEFAS -->
     <defs>
      <path d="M 64.40625 67.28125 
L 64.40625 56.890625 
Q 59.421875 61.53125 53.78125 63.8125 
Q 48.140625 66.109375 41.796875 66.109375 
Q 29.296875 66.109375 22.65625 58.46875 
Q 16.015625 50.828125 16.015625 36.375 
Q 16.015625 21.96875 22.65625 14.328125 
Q 29.296875 6.6875 41.796875 6.6875 
Q 48.140625 6.6875 53.78125 8.984375 
Q 59.421875 11.28125 64.40625 15.921875 
L 64.40625 5.609375 
Q 59.234375 2.09375 53.4375 0.328125 
Q 47.65625 -1.421875 41.21875 -1.421875 
Q 24.65625 -1.421875 15.125 8.703125 
Q 5.609375 18.84375 5.609375 36.375 
Q 5.609375 53.953125 15.125 64.078125 
Q 24.65625 74.21875 41.21875 74.21875 
Q 47.75 74.21875 53.53125 72.484375 
Q 59.328125 70.75 64.40625 67.28125 
z
" id="DejaVuSans-67"/>
      <path d="M 9.8125 72.90625 
L 55.90625 72.90625 
L 55.90625 64.59375 
L 19.671875 64.59375 
L 19.671875 43.015625 
L 54.390625 43.015625 
L 54.390625 34.71875 
L 19.671875 34.71875 
L 19.671875 8.296875 
L 56.78125 8.296875 
L 56.78125 0 
L 9.8125 0 
z
" id="DejaVuSans-69"/>
      <path d="M 9.8125 72.90625 
L 51.703125 72.90625 
L 51.703125 64.59375 
L 19.671875 64.59375 
L 19.671875 43.109375 
L 48.578125 43.109375 
L 48.578125 34.8125 
L 19.671875 34.8125 
L 19.671875 0 
L 9.8125 0 
z
" id="DejaVuSans-70"/>
      <path d="M 34.1875 63.1875 
L 20.796875 26.90625 
L 47.609375 26.90625 
z
M 28.609375 72.90625 
L 39.796875 72.90625 
L 67.578125 0 
L 57.328125 0 
L 50.6875 18.703125 
L 17.828125 18.703125 
L 11.1875 0 
L 0.78125 0 
z
" id="DejaVuSans-65"/>
      <path d="M 53.515625 70.515625 
L 53.515625 60.890625 
Q 47.90625 63.578125 42.921875 64.890625 
Q 37.9375 66.21875 33.296875 66.21875 
Q 25.25 66.21875 20.875 63.09375 
Q 16.5 59.96875 16.5 54.203125 
Q 16.5 49.359375 19.40625 46.890625 
Q 22.3125 44.4375 30.421875 42.921875 
L 36.375 41.703125 
Q 47.40625 39.59375 52.65625 34.296875 
Q 57.90625 29 57.90625 20.125 
Q 57.90625 9.515625 50.796875 4.046875 
Q 43.703125 -1.421875 29.984375 -1.421875 
Q 24.8125 -1.421875 18.96875 -0.25 
Q 13.140625 0.921875 6.890625 3.21875 
L 6.890625 13.375 
Q 12.890625 10.015625 18.65625 8.296875 
Q 24.421875 6.59375 29.984375 6.59375 
Q 38.421875 6.59375 43.015625 9.90625 
Q 47.609375 13.234375 47.609375 19.390625 
Q 47.609375 24.75 44.3125 27.78125 
Q 41.015625 30.8125 33.5 32.328125 
L 27.484375 33.5 
Q 16.453125 35.6875 11.515625 40.375 
Q 6.59375 45.0625 6.59375 53.421875 
Q 6.59375 63.09375 13.40625 68.65625 
Q 20.21875 74.21875 32.171875 74.21875 
Q 37.3125 74.21875 42.625 73.28125 
Q 47.953125 72.359375 53.515625 70.515625 
z
" id="DejaVuSans-83"/>
     </defs>
     <g transform="translate(364.393373 177.83925)scale(0.12 -0.12)">
      <use xlink:href="#DejaVuSans-67"/>
      <use x="69.824219" xlink:href="#DejaVuSans-69"/>
      <use x="133.007812" xlink:href="#DejaVuSans-70"/>
      <use x="190.386719" xlink:href="#DejaVuSans-65"/>
      <use x="258.794922" xlink:href="#DejaVuSans-83"/>
     </g>
    </g>
   </g>
   <g id="text_2">
    <g clip-path="url(#p3c9df1a413)">
     <!-- CEH -->
     <defs>
      <path d="M 9.8125 72.90625 
L 19.671875 72.90625 
L 19.671875 43.015625 
L 55.515625 43.015625 
L 55.515625 72.90625 
L 65.375 72.90625 
L 65.375 0 
L 55.515625 0 
L 55.515625 34.71875 
L 19.671875 34.71875 
L 19.671875 0 
L 9.8125 0 
z
" id="DejaVuSans-72"/>
     </defs>
     <g transform="translate(297.451995 67.875614)scale(0.12 -0.12)">
      <use xlink:href="#DejaVuSans-67"/>
      <use x="69.824219" xlink:href="#DejaVuSans-69"/>
      <use x="133.007812" xlink:href="#DejaVuSans-72"/>
     </g>
    </g>
   </g>
   <g id="text_3">
    <g clip-path="url(#p3c9df1a413)">
     <!-- ICL -->
     <defs>
      <path d="M 9.8125 72.90625 
L 19.671875 72.90625 
L 19.671875 0 
L 9.8125 0 
z
" id="DejaVuSans-73"/>
      <path d="M 9.8125 72.90625 
L 19.671875 72.90625 
L 19.671875 8.296875 
L 55.171875 8.296875 
L 55.171875 0 
L 9.8125 0 
z
" id="DejaVuSans-76"/>
     </defs>
     <g transform="translate(153.072055 67.875621)scale(0.12 -0.12)">
      <use xlink:href="#DejaVuSans-73"/>
      <use x="29.492188" xlink:href="#DejaVuSans-67"/>
      <use x="99.316406" xlink:href="#DejaVuSans-76"/>
     </g>
    </g>
   </g>
   <g id="text_4">
    <g clip-path="url(#p3c9df1a413)">
     <!-- NonAc -->
     <defs>
      <path d="M 9.8125 72.90625 
L 23.09375 72.90625 
L 55.421875 11.921875 
L 55.421875 72.90625 
L 64.984375 72.90625 
L 64.984375 0 
L 51.703125 0 
L 19.390625 60.984375 
L 19.390625 0 
L 9.8125 0 
z
" id="DejaVuSans-78"/>
      <path d="M 30.609375 48.390625 
Q 23.390625 48.390625 19.1875 42.75 
Q 14.984375 37.109375 14.984375 27.296875 
Q 14.984375 17.484375 19.15625 11.84375 
Q 23.34375 6.203125 30.609375 6.203125 
Q 37.796875 6.203125 41.984375 11.859375 
Q 46.1875 17.53125 46.1875 27.296875 
Q 46.1875 37.015625 41.984375 42.703125 
Q 37.796875 48.390625 30.609375 48.390625 
z
M 30.609375 56 
Q 42.328125 56 49.015625 48.375 
Q 55.71875 40.765625 55.71875 27.296875 
Q 55.71875 13.875 49.015625 6.21875 
Q 42.328125 -1.421875 30.609375 -1.421875 
Q 18.84375 -1.421875 12.171875 6.21875 
Q 5.515625 13.875 5.515625 27.296875 
Q 5.515625 40.765625 12.171875 48.375 
Q 18.84375 56 30.609375 56 
z
" id="DejaVuSans-111"/>
      <path d="M 54.890625 33.015625 
L 54.890625 0 
L 45.90625 0 
L 45.90625 32.71875 
Q 45.90625 40.484375 42.875 44.328125 
Q 39.84375 48.1875 33.796875 48.1875 
Q 26.515625 48.1875 22.3125 43.546875 
Q 18.109375 38.921875 18.109375 30.90625 
L 18.109375 0 
L 9.078125 0 
L 9.078125 54.6875 
L 18.109375 54.6875 
L 18.109375 46.1875 
Q 21.34375 51.125 25.703125 53.5625 
Q 30.078125 56 35.796875 56 
Q 45.21875 56 50.046875 50.171875 
Q 54.890625 44.34375 54.890625 33.015625 
z
" id="DejaVuSans-110"/>
      <path d="M 48.78125 52.59375 
L 48.78125 44.1875 
Q 44.96875 46.296875 41.140625 47.34375 
Q 37.3125 48.390625 33.40625 48.390625 
Q 24.65625 48.390625 19.8125 42.84375 
Q 14.984375 37.3125 14.984375 27.296875 
Q 14.984375 17.28125 19.8125 11.734375 
Q 24.65625 6.203125 33.40625 6.203125 
Q 37.3125 6.203125 41.140625 7.25 
Q 44.96875 8.296875 48.78125 10.40625 
L 48.78125 2.09375 
Q 45.015625 0.34375 40.984375 -0.53125 
Q 36.96875 -1.421875 32.421875 -1.421875 
Q 20.0625 -1.421875 12.78125 6.34375 
Q 5.515625 14.109375 5.515625 27.296875 
Q 5.515625 40.671875 12.859375 48.328125 
Q 20.21875 56 33.015625 56 
Q 37.15625 56 41.109375 55.140625 
Q 45.0625 54.296875 48.78125 52.59375 
z
" id="DejaVuSans-99"/>
     </defs>
     <g transform="translate(69.224752 177.839261)scale(0.12 -0.12)">
      <use xlink:href="#DejaVuSans-78"/>
      <use x="74.804688" xlink:href="#DejaVuSans-111"/>
      <use x="135.986328" xlink:href="#DejaVuSans-110"/>
      <use x="199.365234" xlink:href="#DejaVuSans-65"/>
      <use x="267.757812" xlink:href="#DejaVuSans-99"/>
     </g>
    </g>
   </g>
   <g id="text_5">
    <g clip-path="url(#p3c9df1a413)">
     <!-- UoR -->
     <defs>
      <path d="M 8.6875 72.90625 
L 18.609375 72.90625 
L 18.609375 28.609375 
Q 18.609375 16.890625 22.84375 11.734375 
Q 27.09375 6.59375 36.625 6.59375 
Q 46.09375 6.59375 50.34375 11.734375 
Q 54.59375 16.890625 54.59375 28.609375 
L 54.59375 72.90625 
L 64.5 72.90625 
L 64.5 27.390625 
Q 64.5 13.140625 57.4375 5.859375 
Q 50.390625 -1.421875 36.625 -1.421875 
Q 22.796875 -1.421875 15.734375 5.859375 
Q 8.6875 13.140625 8.6875 27.390625 
z
" id="DejaVuSans-85"/>
      <path d="M 44.390625 34.1875 
Q 47.5625 33.109375 50.5625 29.59375 
Q 53.5625 26.078125 56.59375 19.921875 
L 66.609375 0 
L 56 0 
L 46.6875 18.703125 
Q 43.0625 26.03125 39.671875 28.421875 
Q 36.28125 30.8125 30.421875 30.8125 
L 19.671875 30.8125 
L 19.671875 0 
L 9.8125 0 
L 9.8125 72.90625 
L 32.078125 72.90625 
Q 44.578125 72.90625 50.734375 67.671875 
Q 56.890625 62.453125 56.890625 51.90625 
Q 56.890625 45.015625 53.6875 40.46875 
Q 50.484375 35.9375 44.390625 34.1875 
z
M 19.671875 64.796875 
L 19.671875 38.921875 
L 32.078125 38.921875 
Q 39.203125 38.921875 42.84375 42.21875 
Q 46.484375 45.515625 46.484375 51.90625 
Q 46.484375 58.296875 42.84375 61.546875 
Q 39.203125 64.796875 32.078125 64.796875 
z
" id="DejaVuSans-82"/>
     </defs>
     <g transform="translate(150.143327 287.802886)scale(0.12 -0.12)">
      <use xlink:href="#DejaVuSans-85"/>
      <use x="73.193359" xlink:href="#DejaVuSans-111"/>
      <use x="134.375" xlink:href="#DejaVuSans-82"/>
     </g>
    </g>
   </g>
   <g id="text_6">
    <g clip-path="url(#p3c9df1a413)">
     <!-- ZSL -->
     <defs>
      <path d="M 5.609375 72.90625 
L 62.890625 72.90625 
L 62.890625 65.375 
L 16.796875 8.296875 
L 64.015625 8.296875 
L 64.015625 0 
L 4.5 0 
L 4.5 7.515625 
L 50.59375 64.59375 
L 5.609375 64.59375 
z
" id="DejaVuSans-90"/>
     </defs>
     <g transform="translate(298.682923 287.802886)scale(0.12 -0.12)">
      <use xlink:href="#DejaVuSans-90"/>
      <use x="68.505859" xlink:href="#DejaVuSans-83"/>
      <use x="131.982422" xlink:href="#DejaVuSans-76"/>
     </g>
    </g>
   </g>
   <g id="text_7">
    <g clip-path="url(#p3c9df1a413)">
     <!-- CEFAS -->
     <g transform="translate(364.393373 177.83925)scale(0.12 -0.12)">
      <use xlink:href="#DejaVuSans-67"/>
      <use x="69.824219" xlink:href="#DejaVuSans-69"/>
      <use x="133.007812" xlink:href="#DejaVuSans-70"/>
      <use x="190.386719" xlink:href="#DejaVuSans-65"/>
      <use x="258.794922" xlink:href="#DejaVuSans-83"/>
     </g>
    </g>
   </g>
   <g id="text_8">
    <g clip-path="url(#p3c9df1a413)">
     <!-- CEH -->
     <g transform="translate(297.451995 67.875614)scale(0.12 -0.12)">
      <use xlink:href="#DejaVuSans-67"/>
      <use x="69.824219" xlink:href="#DejaVuSans-69"/>
      <use x="133.007812" xlink:href="#DejaVuSans-72"/>
     </g>
    </g>
   </g>
   <g id="text_9">
    <g clip-path="url(#p3c9df1a413)">
     <!-- ICL -->
     <g transform="translate(153.072055 67.875621)scale(0.12 -0.12)">
      <use xlink:href="#DejaVuSans-73"/>
      <use x="29.492188" xlink:href="#DejaVuSans-67"/>
      <use x="99.316406" xlink:href="#DejaVuSans-76"/>
     </g>
    </g>
   </g>
   <g id="text_10">
    <g clip-path="url(#p3c9df1a413)">
     <!-- NonAc -->
     <g transform="translate(69.224752 177.839261)scale(0.12 -0.12)">
      <use xlink:href="#DejaVuSans-78"/>
      <use x="74.804688" xlink:href="#DejaVuSans-111"/>
      <use x="135.986328" xlink:href="#DejaVuSans-110"/>
      <use x="199.365234" xlink:href="#DejaVuSans-65"/>
      <use x="267.757812" xlink:href="#DejaVuSans-99"/>
     </g>
    </g>
   </g>
   <g id="text_11">
    <g clip-path="url(#p3c9df1a413)">
     <!-- UoR -->
     <g transform="translate(150.143327 287.802886)scale(0.12 -0.12)">
      <use xlink:href="#DejaVuSans-85"/>
      <use x="73.193359" xlink:href="#DejaVuSans-111"/>
      <use x="134.375" xlink:href="#DejaVuSans-82"/>
     </g>
    </g>
   </g>
   <g id="text_12">
    <g clip-path="url(#p3c9df1a413)">
     <!-- ZSL -->
     <g transform="translate(298.682923 287.802886)scale(0.12 -0.12)">
      <use xlink:href="#DejaVuSans-90"/>
      <use x="68.505859" xlink:href="#DejaVuSans-83"/>
      <use x="131.982422" xlink:href="#DejaVuSans-76"/>
     </g>
    </g>
   </g>
   <g id="text_13">
    <g clip-path="url(#p3c9df1a413)">
     <!-- CEFAS -->
     <g transform="translate(364.393373 177.83925)scale(0.12 -0.12)">
      <use xlink:href="#DejaVuSans-67"/>
      <use x="69.824219" xlink:href="#DejaVuSans-69"/>
      <use x="133.007812" xlink:href="#DejaVuSans-70"/>
      <use x="190.386719" xlink:href="#DejaVuSans-65"/>
      <use x="258.794922" xlink:href="#DejaVuSans-83"/>
     </g>
    </g>
   </g>
   <g id="text_14">
    <g clip-path="url(#p3c9df1a413)">
     <!-- CEH -->
     <g transform="translate(297.451995 67.875614)scale(0.12 -0.12)">
      <use xlink:href="#DejaVuSans-67"/>
      <use x="69.824219" xlink:href="#DejaVuSans-69"/>
      <use x="133.007812" xlink:href="#DejaVuSans-72"/>
     </g>
    </g>
   </g>
   <g id="text_15">
    <g clip-path="url(#p3c9df1a413)">
     <!-- ICL -->
     <g transform="translate(153.072055 67.875621)scale(0.12 -0.12)">
      <use xlink:href="#DejaVuSans-73"/>
      <use x="29.492188" xlink:href="#DejaVuSans-67"/>
      <use x="99.316406" xlink:href="#DejaVuSans-76"/>
     </g>
    </g>
   </g>
   <g id="text_16">
    <g clip-path="url(#p3c9df1a413)">
     <!-- NonAc -->
     <g transform="translate(69.224752 177.839261)scale(0.12 -0.12)">
      <use xlink:href="#DejaVuSans-78"/>
      <use x="74.804688" xlink:href="#DejaVuSans-111"/>
      <use x="135.986328" xlink:href="#DejaVuSans-110"/>
      <use x="199.365234" xlink:href="#DejaVuSans-65"/>
      <use x="267.757812" xlink:href="#DejaVuSans-99"/>
     </g>
    </g>
   </g>
   <g id="text_17">
    <g clip-path="url(#p3c9df1a413)">
     <!-- UoR -->
     <g transform="translate(150.143327 287.802886)scale(0.12 -0.12)">
      <use xlink:href="#DejaVuSans-85"/>
      <use x="73.193359" xlink:href="#DejaVuSans-111"/>
      <use x="134.375" xlink:href="#DejaVuSans-82"/>
     </g>
    </g>
   </g>
   <g id="text_18">
    <g clip-path="url(#p3c9df1a413)">
     <!-- ZSL -->
     <g transform="translate(298.682923 287.802886)scale(0.12 -0.12)">
      <use xlink:href="#DejaVuSans-90"/>
      <use x="68.505859" xlink:href="#DejaVuSans-83"/>
      <use x="131.982422" xlink:href="#DejaVuSans-76"/>
     </g>
    </g>
   </g>
  </g>
 </g>
 <defs>
  <clipPath id="p3c9df1a413">
   <rect height="266.112" width="357.12" x="57.6" y="41.472"/>
  </clipPath>
 </defs>
</svg>
